<?xml version="1.0" encoding="UTF-8"?>
<svg width="414" height="38.32" id="_圖層_2" data-name="圖層 2" xmlns="http://www.w3.org/2000/svg" viewBox="0 0 414 38.32">
  <defs>
    <style>
      .cls-1 {
        fill: #ea5a57;
      }

      .cls-2 {
        fill: #32675d;
      }

      .cls-3 {
        fill: #3e3a39;
      }
    </style>
  </defs>
  <g id="_圖層_1-2" data-name="圖層 1">
    <g>
      <g>
        <g>
          <path class="cls-3" d="M138.41,9.54h6.7v9.52h-2.38v-.95h-4.32v5.94h-2.4v-5.94h-4.28v1.04h-2.29v-9.61h6.57v-3.3h2.4v3.3ZM131.72,15.87h4.28v-4.1h-4.28v4.1ZM138.41,15.87h4.32v-4.1h-4.32v4.1Z"/>
          <path class="cls-3" d="M166.47,15.71h-3.37v1.19h2.31v1.84h-6.52v1.12h7.41v1.94h-7.41v2.25h-2.22v-2.25h-7.21v-1.94h7.21v-1.12h-6.2v-1.84h2.1v-1.19h-3.37v-1.9h3.37v-1.14h-1.92v-1.86h14.49v1.86h-2.05v1.14h3.37v1.9ZM153.38,10.38v-1.06h-3.99v-2.01h3.99v-1.04h2.22v1.04h4.39v-1.04h2.2v1.04h4.12v2.01h-4.12v1.06h-2.2v-1.06h-4.39v1.06h-2.22ZM154.7,12.67v1.14h1.97v-1.14h-1.97ZM154.7,16.9h1.97v-1.19h-1.97v1.19ZM160.99,13.81v-1.14h-2.1v1.14h2.1ZM160.99,16.9v-1.19h-2.1v1.19h2.1Z"/>
          <path class="cls-3" d="M186.97,17.38h-5.53c.6,1.87,1.33,3.19,2.2,3.95.37.31.72.47,1.04.47.36,0,.6-.66.71-1.99.01-.22.03-.47.04-.73.56.5,1.19.85,1.9,1.06.03.01.04.02.06.02-.19,1.85-.6,3.02-1.23,3.5-.38.27-.92.41-1.6.41-1.5-.01-2.83-.97-3.98-2.87-.65-1.08-1.17-2.35-1.56-3.82h-4.84v3.52c2.59-.32,4.28-.53,5.05-.63l.07,2.25c-2.86.41-5.85.81-8.99,1.21l-.47-2.37c.67-.06,1.34-.14,2.01-.22V7.1h13.78v6.28h-4.95c.06.7.14,1.32.24,1.88h6.07v2.12ZM183.3,9.21h-9.14v2.07h9.14v-2.07ZM174.16,15.26h4.38c-.1-.63-.17-1.26-.22-1.88h-4.15v1.88Z"/>
          <path class="cls-3" d="M190.9,7.05h16.26v17.06h-2.25v-.8h-11.86v.8h-2.14V7.05ZM193.04,21.29h11.86v-12.22h-2.36c.67.32,1.2.7,1.6,1.12l-.76.8h.93v1.6h-3.43c.09,1.03.21,2,.37,2.91.38-.77.68-1.56.89-2.38l1.73.35c-.46,1.61-1.12,3.07-1.99,4.36.26.6.55.94.88,1.02.2.05.34-.55.43-1.79.45.45.92.81,1.42,1.08-.22,1.76-.8,2.66-1.73,2.68-.26,0-.53-.06-.82-.19-.57-.2-1.05-.62-1.43-1.27-.65.63-1.31,1.17-1.99,1.62-.42-.58-.83-1.04-1.23-1.36.17-.1.38-.23.61-.39-1.78.26-3.2.48-4.28.65l-.2-1.66c1.49-.16,3.28-.38,5.36-.65l.04.95c.29-.24.6-.55.95-.95-.36-1.2-.63-2.87-.82-4.99h-5.31v-1.6h5.18c-.01-.19-.03-.46-.06-.82-.01-.36-.02-.63-.04-.8h1.86c.02.7.05,1.24.07,1.62h2.07c-.58-.47-1.07-.81-1.47-1.02l.89-.89h-9.22v12.22ZM198.48,13.41v3.61h-4.25v-3.61h4.25ZM196.95,15.84v-1.23h-1.27v1.23h1.27Z"/>
          <path class="cls-3" d="M218.85,11.46h-4.41v-.73c-.53.48-1.1.95-1.69,1.4h7.63v5.94h-6.16c-.06.4-.11.65-.13.76h6.57v5.12h-1.96v-.54h-3.22v.6h-1.92v-3.15c-.39,1.14-.87,2.07-1.45,2.79-.3-.4-.71-.79-1.23-1.19-.1-.07-.19-.13-.26-.17,1.25-1.65,1.88-4.12,1.88-7.39v-2.61c-.07.05-.18.12-.32.22-.15.1-.25.17-.32.21-.27-.52-.66-1.01-1.17-1.47-.06-.05-.12-.09-.17-.13,1.96-1.14,3.48-2.57,4.56-4.28.09-.14.16-.26.22-.37h2.01c1.85,1.42,3.18,2.56,3.99,3.43l-1.45,1.68c-.34-.37-.67-.74-1.01-1.1v.99ZM214.36,16.49h3.97v-.73h-3.93c0,.17-.01.42-.04.73ZM218.32,13.71h-3.91v.69h3.91v-.69ZM215.29,9.93h3.02c-.7-.67-1.26-1.18-1.69-1.53-.55.67-.99,1.18-1.32,1.53ZM218.7,20.45h-3.22v1.34h3.22v-1.34ZM223.63,8.55v10.73h-2.14v-10.73h2.14ZM225.66,6.62h2.2v14.73c0,1.01-.21,1.67-.63,1.99-.11.09-.24.16-.37.22-.62.31-1.8.47-3.54.47-.11-.75-.36-1.51-.74-2.31.76.02,1.63.04,2.61.04.31-.03.47-.17.48-.43V6.62Z"/>
          <path class="cls-3" d="M248.73,19.71h-5.53c1.69,1.02,3.7,1.71,6.03,2.07-.56.55-1.07,1.24-1.53,2.07-2.5-.63-4.63-1.71-6.41-3.22v3.43h-2.22v-3.31c-1.8,1.41-3.93,2.45-6.39,3.09-.42-.73-.91-1.37-1.45-1.9,2.38-.5,4.39-1.23,6.01-2.22h-5.47v-1.88h7.3v-.84h-5.49v-1.64h5.49v-.86h-6.46v-1.77h3.63c-.14-.45-.35-.94-.65-1.49l.22-.04h-3.99v-1.84h2.57c-.21-.6-.61-1.38-1.19-2.36l1.95-.67c.67.99,1.15,1.89,1.43,2.68l-.93.35h1.73v-3.11h2.12v3.11h1.41v-3.11h2.14v3.11h1.7l-.69-.22c.47-.79.87-1.71,1.19-2.76l2.38.58c-.14.22-.33.55-.6.97-.4.68-.69,1.16-.88,1.43h2.48v1.84h-3.59c-.14.25-.44.76-.89,1.53h3.74v1.77h-6.63v.86h5.74v1.64h-5.74v.84h7.43v1.88ZM242.57,11.2h-4.56c.32.63.54,1.12.65,1.47l-.32.06h3.56c.26-.55.48-1.06.67-1.53Z"/>
          <path class="cls-3" d="M258.49,16.41l-1.81.6v4.58c0,.96-.21,1.59-.63,1.92-.06.04-.12.07-.19.11-.52.26-1.49.39-2.91.39-.09-.61-.3-1.3-.63-2.09.48.03,1.08.04,1.79.04.21-.06.32-.18.34-.35v-3.89c-1.13.35-1.83.56-2.09.63l-.6-2.36c.43-.08,1.33-.27,2.68-.6v-3.52h-2.4v-2.1h2.4v-3.5h2.23v3.5h1.88v2.1h-1.88v2.96l1.58-.37.22,1.96ZM267.18,14.29l1.49.6c-.65,2.25-1.68,4.08-3.11,5.49,1.3.74,2.78,1.27,4.43,1.58-.51.5-1,1.19-1.49,2.07-1.83-.45-3.43-1.15-4.8-2.12-1.45.94-3.16,1.66-5.12,2.16-.3-.81-.68-1.5-1.16-2.08,1.7-.34,3.19-.88,4.47-1.64-.87-.93-1.63-2.08-2.29-3.45l1.62-.5h-2.08v-2.03h.37c-.25-.43-.67-.92-1.27-1.45-.09-.07-.16-.14-.22-.19,1.32-.76,2.02-1.89,2.1-3.39.01-.15.02-.3.02-.45v-1.94h6.76v4.13c.07.35.17.53.28.56h.54c.15,0,.25-.14.3-.43.04-.26.06-.76.07-1.49.51.36,1.12.63,1.84.8-.11,1.44-.39,2.33-.84,2.68-.27.21-.65.32-1.14.32h-1.21c-.91,0-1.49-.25-1.75-.75-.19-.36-.28-.92-.28-1.68v-2.07h-2.44c-.04,2.41-.94,4.18-2.72,5.33h7.19l.43-.08ZM265.68,16.39h-3.97c.52,1.01,1.19,1.89,1.99,2.64.79-.73,1.45-1.61,1.97-2.64Z"/>
          <path class="cls-3" d="M287.93,20.84h-3.3c2.09.75,3.9,1.49,5.44,2.24l-2.62,1c-1.2-.7-2.86-1.45-4.97-2.25l1.73-.99h-5.59l1.75.76c-1.46.96-3.43,1.78-5.88,2.48-.04.01-.06.02-.08.02-.65-.71-1.2-1.26-1.68-1.66,2.11-.38,3.86-.92,5.25-1.6h-2.81v-7.75h3.99c-.17-.36-.44-.76-.78-1.19-2.32.65-4.06,1.12-5.21,1.43l-.63-1.84c1.27-.24,3.18-.66,5.75-1.27l.19,1.51c1.95-.33,3.22-.91,3.82-1.71.19-.27.33-.58.45-.93h-1.38c-.5.58-1.01,1.09-1.53,1.53-.43-.43-1-.79-1.69-1.06,1.24-.87,2.17-1.97,2.79-3.31l2.01.32c-.16.35-.33.66-.5.93h5.62l.35-.06,1.51.39c-.61,1.22-1.22,2.17-1.83,2.87l-1.75-.54c.3-.38.55-.74.75-1.06h-2.12c.3.86.94,1.5,1.94,1.94.83.36,1.97.63,3.41.8-.43.44-.79,1.02-1.08,1.75-.01.04-.02.07-.04.09-.56-.09-.98-.17-1.27-.24v7.41ZM278.3,7.55v1.71h-5.08v-1.71h5.08ZM277.37,14.46v.82h8.25v-.82h-8.25ZM277.37,16.56v.82h8.25v-.82h-8.25ZM277.37,18.65v.84h8.25v-.84h-8.25ZM280.48,13.1h6.39c-1.33-.5-2.3-1.18-2.92-2.05-.68.89-1.84,1.58-3.46,2.05Z"/>
          <path class="cls-3" d="M310.36,9.75h-3.41c-.06.11-.34.61-.84,1.49h3.8v10.33c0,.96-.23,1.6-.69,1.94-.09.06-.18.12-.28.17-.58.25-1.68.37-3.3.37-.09-.52-.3-1.16-.65-1.92h-4.66v1.04h-2.01v-6h7.49v4.73c.45.01.94.02,1.49.02.25-.07.38-.2.41-.37v-5.85c-.26.51-.77.76-1.53.76h-1.55c-.94,0-1.54-.21-1.79-.63-.16-.3-.24-.78-.24-1.43v-1.23h-1.55c-.1,1.29-.48,2.23-1.14,2.81-.57.52-1.45.92-2.64,1.19-.16-.45-.43-.89-.82-1.32v8.16h-2.16v-12.77h3.41c-.12-.4-.32-.89-.6-1.49h-3.45v-2.07h7.08v-1.42h2.31v1.42h7.3v2.07ZM296.47,13.17v2.4c1.2-.24,1.97-.64,2.29-1.21.16-.3.27-.7.32-1.19h-2.61ZM300.18,11.24h3.45c.45-.93.68-1.43.71-1.49h-4.77c.32.68.53,1.18.61,1.49ZM303.77,20.47v-1.6h-3.43v1.6h3.43ZM307.72,14.33v-1.16h-3.17v1.21c0,.26.07.4.21.43.05.01.11.02.19.02h.99c.2,0,.32-.1.37-.32.04-.15.07-.39.09-.73.31.21.75.39,1.32.54Z"/>
          <path class="cls-3" d="M331.11,19.71h-5.53c1.69,1.02,3.7,1.71,6.03,2.07-.56.55-1.07,1.24-1.53,2.07-2.5-.63-4.63-1.71-6.41-3.22v3.43h-2.22v-3.31c-1.8,1.41-3.93,2.45-6.39,3.09-.42-.73-.91-1.37-1.45-1.9,2.38-.5,4.39-1.23,6.01-2.22h-5.47v-1.88h7.3v-.84h-5.49v-1.64h5.49v-.86h-6.46v-1.77h3.63c-.14-.45-.35-.94-.65-1.49l.22-.04h-3.99v-1.84h2.57c-.21-.6-.61-1.38-1.19-2.36l1.95-.67c.67.99,1.15,1.89,1.43,2.68l-.93.35h1.73v-3.11h2.12v3.11h1.41v-3.11h2.14v3.11h1.7l-.69-.22c.47-.79.87-1.71,1.19-2.76l2.38.58c-.14.22-.33.55-.6.97-.4.68-.69,1.16-.88,1.43h2.48v1.84h-3.59c-.14.25-.44.76-.89,1.53h3.74v1.77h-6.63v.86h5.74v1.64h-5.74v.84h7.43v1.88ZM324.94,11.2h-4.56c.32.63.54,1.12.65,1.47l-.32.06h3.56c.26-.55.48-1.06.67-1.53Z"/>
          <path class="cls-3" d="M351.29,7.14v14.3c0,1.04-.25,1.74-.76,2.09-.08.04-.14.07-.21.11-.66.29-1.78.43-3.37.43-.11-.73-.36-1.46-.75-2.2-.01-.02-.03-.04-.04-.06,1.04.06,1.86.07,2.44.04.29-.04.43-.18.45-.43v-12.12h-11.71v14.75h-2.22V7.14h16.16ZM347.94,10.62v1.92h-9.52v-1.92h9.52ZM347.08,20.36h-5.66v1.27h-2.1v-7.63h7.76v6.37ZM344.98,15.87h-3.56v2.63h3.56v-2.63Z"/>
          <path class="cls-3" d="M372.3,19.71h-5.53c1.69,1.02,3.7,1.71,6.03,2.07-.56.55-1.07,1.24-1.53,2.07-2.5-.63-4.63-1.71-6.41-3.22v3.43h-2.22v-3.31c-1.8,1.41-3.93,2.45-6.39,3.09-.42-.73-.91-1.37-1.45-1.9,2.38-.5,4.39-1.23,6.01-2.22h-5.47v-1.88h7.3v-.84h-5.49v-1.64h5.49v-.86h-6.46v-1.77h3.63c-.14-.45-.35-.94-.65-1.49l.22-.04h-3.99v-1.84h2.57c-.21-.6-.61-1.38-1.19-2.36l1.96-.67c.67.99,1.15,1.89,1.43,2.68l-.93.35h1.73v-3.11h2.12v3.11h1.42v-3.11h2.14v3.11h1.7l-.69-.22c.47-.79.87-1.71,1.19-2.76l2.38.58c-.14.22-.33.55-.6.97-.4.68-.69,1.16-.88,1.43h2.48v1.84h-3.59c-.14.25-.44.76-.89,1.53h3.74v1.77h-6.63v.86h5.74v1.64h-5.74v.84h7.43v1.88ZM366.13,11.2h-4.56c.32.63.54,1.12.65,1.47l-.32.06h3.56c.26-.55.48-1.06.67-1.53Z"/>
          <path class="cls-3" d="M379.37,9.17l2.5.74c-.98,2-2.2,3.7-3.67,5.1-.3.29-.59.54-.88.76-.65-.67-1.26-1.2-1.84-1.6,1.24-.92,2.32-2.14,3.22-3.67.27-.47.5-.92.67-1.34ZM386.39,17.4l2.14-1.02c1.61,1.9,2.97,3.83,4.06,5.79.15.29.29.55.41.8l-2.27,1.19c-.09-.22-.34-.73-.76-1.51-4.66.24-9.04.43-13.15.6l-.26-2.38c1.35-.02,2.28-.05,2.79-.07,1.22-2.2,2.25-4.64,3.11-7.32.04-.14.07-.27.11-.39l2.72.67c-1.07,2.52-2.2,4.84-3.39,6.96,1.5-.04,3.75-.11,6.74-.2-.91-1.34-1.66-2.38-2.25-3.11ZM381.05,7.01h7.49c.81,1.97,1.97,3.74,3.5,5.31.52.52,1.04.97,1.54,1.34-.65.34-1.31.84-1.99,1.53-.05.05-.09.09-.13.13-1.7-1.49-3.19-3.48-4.47-5.96-.02-.06-.05-.11-.07-.15h-5.87v-2.2Z"/>
          <path class="cls-3" d="M403.71,6.25h2.14c1.84,1.71,4.16,3.01,6.96,3.89.4.12.79.24,1.19.33-.35.39-.78,1.01-1.29,1.88-.55-.19-.91-.32-1.1-.39v4.97h-13.24v-4.99c-.3.11-.73.27-1.29.47-.4-.76-.79-1.35-1.17-1.77,2.35-.7,4.44-1.72,6.28-3.07.61-.45,1.11-.89,1.51-1.32ZM398.83,11.76h12.27c-.96-.4-1.88-.84-2.77-1.34v.65h-6.68v-.73c-.76.45-1.7.92-2.81,1.42ZM399.42,24.05v-6.5h11.21v6.44h-2.33v-.47h-6.65v.52h-2.23ZM400.26,15.54h1.32c-.1-.62-.32-1.28-.65-1.97l1.47-.43h-2.14v2.4ZM408.31,19.04h-6.65v.74h6.65v-.74ZM401.66,22.06h6.65v-.76h-6.65v.76ZM403.97,15.54v-2.4h-1.47c.38.77.64,1.45.76,2.05l-1.23.35h1.94ZM402.83,9.6h4.15c-.86-.55-1.56-1.08-2.12-1.6-.48.48-1.16,1.02-2.03,1.6ZM407.19,13.14h-1.4v2.4h1.75l-1.12-.3c.35-.79.6-1.5.76-2.1ZM409.65,15.54v-2.4h-2.07l1.49.37c-.4.81-.75,1.48-1.04,2.03h1.62Z"/>
        </g>
        <g>
          <path class="cls-3" d="M132.96,36.11v-6.35h-2.15v-.76h5.2v.76h-2.16v6.35h-.9Z"/>
          <path class="cls-3" d="M142.09,36.23c-.61,0-1.04-.21-1.31-.64-.15-.25-.23-.53-.23-.84,0-.7.41-1.21,1.22-1.53.49-.2,1.16-.34,2.01-.44-.01-.88-.37-1.33-1.08-1.33-.5,0-1.02.2-1.58.57l-.35-.62c.71-.45,1.4-.68,2.07-.68.98,0,1.57.49,1.76,1.46.04.21.07.45.07.7v3.23h-.73l-.08-.63h-.03c-.61.5-1.2.76-1.75.76ZM142.35,35.53c.42,0,.86-.2,1.33-.61.04-.03.07-.06.1-.08v-1.48c-1.29.16-2.04.46-2.27.91-.06.13-.09.26-.09.42,0,.46.22.73.65.82.09.02.18.03.27.03Z"/>
          <path class="cls-3" d="M150.46,29.76c-.28,0-.46-.11-.56-.34-.03-.08-.05-.15-.05-.23,0-.28.13-.47.39-.55.08-.02.15-.03.22-.03.29,0,.48.12.58.35.03.08.04.15.04.23,0,.25-.12.42-.36.52-.08.03-.17.05-.25.05ZM150.02,36.11v-5.26h.88v5.26h-.88Z"/>
          <path class="cls-3" d="M157.19,36.11l-1.46-5.26h.9l.79,3.05c.03.13.07.33.13.6.08.38.14.67.18.87h.05c.14-.61.26-1.1.36-1.47l.81-3.05h.86l.82,3.05c.05.2.12.5.22.88.07.27.12.46.15.59h.04c.05-.21.12-.51.21-.92.06-.25.1-.43.12-.55l.78-3.05h.83l-1.42,5.26h-1.07l-.76-2.84c-.04-.16-.16-.66-.36-1.51h-.05c-.13.61-.25,1.12-.36,1.53l-.74,2.82h-1.04Z"/>
          <path class="cls-3" d="M169.01,36.23c-.61,0-1.04-.21-1.31-.64-.15-.25-.23-.53-.23-.84,0-.7.41-1.21,1.22-1.53.49-.2,1.16-.34,2.01-.44-.01-.88-.37-1.33-1.08-1.33-.5,0-1.02.2-1.58.57l-.35-.62c.71-.45,1.4-.68,2.07-.68.98,0,1.57.49,1.76,1.46.04.21.07.45.07.7v3.23h-.73l-.08-.63h-.03c-.61.5-1.2.76-1.75.76ZM169.27,35.53c.42,0,.86-.2,1.33-.61.04-.03.07-.06.1-.08v-1.48c-1.29.16-2.04.46-2.27.91-.06.13-.09.26-.09.42,0,.46.22.73.65.82.09.02.18.03.27.03Z"/>
          <path class="cls-3" d="M176.94,36.11v-5.26h.73l.08.76h.03c.57-.56,1.13-.86,1.66-.89h.1c1.07.01,1.6.7,1.61,2.06v3.33h-.89v-3.22c0-.75-.2-1.2-.6-1.34-.12-.04-.25-.06-.4-.06-.38,0-.76.17-1.15.52-.09.08-.19.18-.29.28v3.81h-.88Z"/>
          <path class="cls-3" d="M193.76,36.11l-2.27-7.1h.94l1.15,3.85c.07.23.17.57.29,1,.16.58.29,1.03.4,1.34h.04c.09-.3.22-.73.38-1.29.13-.46.24-.81.31-1.06l1.14-3.85h.91l-2.26,7.1h-1.03Z"/>
          <path class="cls-3" d="M203.74,36.23c-.79,0-1.42-.28-1.89-.85-.42-.5-.62-1.14-.62-1.9,0-.91.29-1.63.87-2.16.44-.4.94-.61,1.5-.61.85,0,1.45.36,1.81,1.07.19.4.28.86.28,1.4,0,.17-.01.34-.04.5h-3.55c.04.73.31,1.26.81,1.58.27.18.58.26.94.26.47,0,.91-.14,1.31-.42l.32.58c-.55.36-1.14.54-1.75.54ZM202.09,33.06h2.82c0-.88-.3-1.4-.89-1.58-.13-.04-.27-.06-.42-.06-.5,0-.89.22-1.18.66-.18.28-.29.6-.33.97Z"/>
          <path class="cls-3" d="M210.66,36.11v-5.26h.73l.08.76h.03c.57-.56,1.13-.86,1.66-.89h.1c1.07.01,1.6.7,1.61,2.06v3.33h-.89v-3.22c0-.75-.2-1.2-.6-1.34-.12-.04-.25-.06-.4-.06-.38,0-.76.17-1.15.52-.09.08-.19.18-.29.28v3.81h-.88Z"/>
          <path class="cls-3" d="M221.91,36.23c-.87,0-1.36-.43-1.47-1.3-.02-.14-.03-.3-.03-.45v-2.91h-.79v-.67l.82-.05.1-1.47h.74v1.47h1.42v.72h-1.42v2.93c0,.58.18.91.55.99.08.02.17.03.27.03.16,0,.36-.05.6-.14l.18.66c-.4.13-.73.19-.97.19Z"/>
          <path class="cls-3" d="M229.11,36.23c-1.06-.01-1.59-.7-1.6-2.05v-3.33h.88v3.23c0,.75.2,1.19.61,1.33.11.04.24.06.39.06.4,0,.78-.18,1.13-.55.09-.1.18-.21.28-.34v-3.73h.88v5.26h-.73l-.08-.82h-.03c-.5.58-1.03.89-1.58.94-.06,0-.11,0-.16,0Z"/>
          <path class="cls-3" d="M237.13,36.11v-5.26h.73l.08.96h.03c.35-.62.78-.98,1.29-1.07.07-.01.14-.02.21-.02.23,0,.42.04.56.11l-.16.78c-.15-.06-.32-.09-.51-.09-.43,0-.8.25-1.11.75-.08.14-.16.29-.23.46v3.38h-.88Z"/>
          <path class="cls-3" d="M246.69,36.23c-.79,0-1.42-.28-1.89-.85-.42-.5-.62-1.14-.62-1.9,0-.91.29-1.63.87-2.16.44-.4.94-.61,1.5-.61.85,0,1.45.36,1.81,1.07.19.4.28.86.28,1.4,0,.17-.01.34-.04.5h-3.55c.04.73.31,1.26.81,1.58.27.18.58.26.94.26.47,0,.91-.14,1.31-.42l.32.58c-.55.36-1.14.54-1.75.54ZM245.04,33.06h2.82c0-.88-.3-1.4-.89-1.58-.13-.04-.27-.06-.42-.06-.5,0-.89.22-1.18.66-.18.28-.29.6-.33.97Z"/>
          <path class="cls-3" d="M262.22,36.23c-.95,0-1.71-.35-2.28-1.06-.54-.67-.81-1.54-.81-2.61,0-1.25.36-2.21,1.08-2.89.57-.53,1.26-.79,2.07-.79.72,0,1.34.26,1.86.79.03.04.06.07.09.09l-.48.59c-.43-.45-.91-.67-1.46-.68-.78,0-1.38.34-1.79,1.01-.3.5-.45,1.13-.45,1.86,0,1.13.3,1.95.91,2.46.37.3.8.45,1.3.45.61,0,1.16-.27,1.65-.79l.49.57c-.58.67-1.31,1.01-2.18,1.01Z"/>
          <path class="cls-3" d="M270.52,36.23c-.61,0-1.04-.21-1.31-.64-.15-.25-.23-.53-.23-.84,0-.7.41-1.21,1.22-1.53.49-.2,1.16-.34,2.01-.44-.01-.88-.37-1.33-1.08-1.33-.5,0-1.02.2-1.58.57l-.35-.62c.71-.45,1.4-.68,2.07-.68.98,0,1.57.49,1.76,1.46.04.21.07.45.07.7v3.23h-.73l-.08-.63h-.03c-.61.5-1.2.76-1.75.76ZM270.78,35.53c.42,0,.86-.2,1.33-.61.04-.03.07-.06.1-.08v-1.48c-1.29.16-2.04.46-2.27.91-.06.13-.09.26-.09.42,0,.46.22.73.65.82.09.02.18.03.27.03Z"/>
          <path class="cls-3" d="M278.45,38.32v-7.47h.73l.08.6h.03c.59-.48,1.15-.72,1.67-.73.84,0,1.44.38,1.8,1.13.2.42.3.94.3,1.54,0,1-.3,1.77-.9,2.3-.4.36-.87.54-1.39.54-.48,0-.96-.21-1.46-.61l.02.92v1.78h-.88ZM280.63,35.5c.54,0,.94-.26,1.22-.79.19-.36.28-.79.28-1.31-.01-1.29-.47-1.94-1.38-1.95-.43,0-.9.25-1.42.73v2.76c.43.37.86.55,1.3.55Z"/>
          <path class="cls-3" d="M288.57,29.76c-.28,0-.46-.11-.56-.34-.03-.08-.05-.15-.05-.23,0-.28.13-.47.39-.55.08-.02.15-.03.22-.03.29,0,.48.12.58.35.03.08.04.15.04.23,0,.25-.12.42-.36.52-.08.03-.17.05-.25.05ZM288.13,36.11v-5.26h.88v5.26h-.88Z"/>
          <path class="cls-3" d="M296.12,36.23c-.87,0-1.36-.43-1.47-1.3-.02-.14-.03-.3-.03-.45v-2.91h-.79v-.67l.82-.05.1-1.47h.74v1.47h1.42v.72h-1.42v2.93c0,.58.18.91.55.99.08.02.17.03.27.03.16,0,.36-.05.6-.14l.18.66c-.4.13-.73.19-.97.19Z"/>
          <path class="cls-3" d="M303,36.23c-.61,0-1.04-.21-1.31-.64-.15-.25-.23-.53-.23-.84,0-.7.41-1.21,1.22-1.53.49-.2,1.16-.34,2.01-.44-.01-.88-.37-1.33-1.08-1.33-.5,0-1.02.2-1.58.57l-.35-.62c.71-.45,1.4-.68,2.07-.68.98,0,1.57.49,1.76,1.46.04.21.07.45.07.7v3.23h-.73l-.08-.63h-.03c-.61.5-1.2.76-1.75.76ZM303.26,35.53c.42,0,.86-.2,1.33-.61.04-.03.07-.06.1-.08v-1.48c-1.29.16-2.04.46-2.27.91-.06.13-.09.26-.09.42,0,.46.22.73.65.82.09.02.18.03.27.03Z"/>
          <path class="cls-3" d="M311.87,36.23c-.62-.01-.93-.4-.94-1.17v-6.66h.88v6.72c0,.24.09.36.25.37.06,0,.12,0,.18-.02l.13.68c-.14.05-.31.08-.51.08Z"/>
          <path class="cls-3" d="M327.22,36.11l-.68-2.17h-2.59l-.69,2.17h-.91l2.41-7.1h1l2.4,7.1h-.95ZM324.17,33.23h2.15l-.34-1.09c-.15-.46-.39-1.26-.72-2.4h-.04c-.22.8-.46,1.6-.71,2.4l-.34,1.09Z"/>
          <path class="cls-3" d="M334.14,36.23c-.71,0-1.34-.22-1.91-.67-.02-.02-.04-.03-.06-.05l.43-.59c.52.42,1.04.62,1.56.62s.85-.18.98-.54c.03-.09.05-.19.05-.28,0-.32-.25-.59-.74-.81-.11-.04-.26-.11-.46-.19-.66-.25-1.09-.5-1.31-.78-.17-.22-.26-.47-.26-.75,0-.53.23-.93.69-1.21.32-.18.69-.27,1.13-.27.59,0,1.13.2,1.64.59l-.43.58c-.43-.32-.83-.47-1.21-.47-.5,0-.81.17-.92.52-.02.08-.04.16-.04.24,0,.27.2.5.59.68.09.04.28.11.57.23.58.22.97.42,1.17.61.29.26.44.6.44.99,0,.55-.23.97-.7,1.26-.33.2-.74.3-1.21.3Z"/>
          <path class="cls-3" d="M342.35,36.23c-.71,0-1.34-.22-1.91-.67-.02-.02-.04-.03-.06-.05l.43-.59c.52.42,1.04.62,1.56.62s.85-.18.98-.54c.03-.09.05-.19.05-.28,0-.32-.25-.59-.74-.81-.11-.04-.26-.11-.46-.19-.66-.25-1.09-.5-1.31-.78-.17-.22-.26-.47-.26-.75,0-.53.23-.93.69-1.21.32-.18.69-.27,1.13-.27.59,0,1.13.2,1.64.59l-.43.58c-.43-.32-.83-.47-1.21-.47-.5,0-.81.17-.92.52-.02.08-.04.16-.04.24,0,.27.2.5.59.68.09.04.28.11.57.23.58.22.97.42,1.17.61.29.26.44.6.44.99,0,.55-.23.97-.7,1.26-.33.2-.74.3-1.21.3Z"/>
          <path class="cls-3" d="M351.23,36.23c-.71,0-1.29-.26-1.76-.79-.45-.52-.68-1.17-.68-1.97,0-.96.31-1.7.93-2.22.44-.36.95-.54,1.51-.54.71,0,1.3.26,1.77.79.45.52.67,1.17.67,1.97,0,.95-.31,1.69-.93,2.2-.44.37-.94.55-1.51.55ZM351.23,35.5c.55,0,.97-.26,1.26-.79.18-.35.27-.76.27-1.23,0-.78-.22-1.35-.66-1.72-.25-.21-.54-.31-.87-.31-.55,0-.96.26-1.24.79-.18.35-.27.76-.27,1.24,0,.8.23,1.38.68,1.73.24.19.52.28.83.28Z"/>
          <path class="cls-3" d="M360.8,36.23c-.8,0-1.43-.29-1.89-.88-.38-.5-.58-1.12-.58-1.87,0-.95.31-1.68.95-2.2.46-.37.99-.56,1.6-.56.55,0,1.07.21,1.53.61l-.45.6c-.36-.32-.71-.48-1.05-.48-.55,0-.99.25-1.31.74-.23.37-.34.8-.34,1.3,0,.77.23,1.34.7,1.7.27.21.57.31.93.31.45,0,.86-.18,1.24-.52l.38.6c-.49.44-1.05.66-1.7.66Z"/>
          <path class="cls-3" d="M367.78,29.76c-.28,0-.46-.11-.56-.34-.03-.08-.05-.15-.05-.23,0-.28.13-.47.39-.55.08-.02.15-.03.22-.03.29,0,.48.12.58.35.03.08.04.15.04.23,0,.25-.12.42-.36.52-.08.03-.17.05-.25.05ZM367.34,36.11v-5.26h.88v5.26h-.88Z"/>
          <path class="cls-3" d="M374.88,36.23c-.61,0-1.04-.21-1.31-.64-.15-.25-.23-.53-.23-.84,0-.7.41-1.21,1.22-1.53.49-.2,1.16-.34,2.01-.44-.01-.88-.37-1.33-1.08-1.33-.5,0-1.02.2-1.58.57l-.35-.62c.71-.45,1.4-.68,2.07-.68.98,0,1.57.49,1.76,1.46.04.21.07.45.07.7v3.23h-.73l-.08-.63h-.03c-.61.5-1.2.76-1.75.76ZM375.14,35.53c.42,0,.86-.2,1.33-.61.04-.03.07-.06.1-.08v-1.48c-1.29.16-2.04.46-2.27.91-.06.13-.09.26-.09.42,0,.46.22.73.65.82.09.02.18.03.27.03Z"/>
          <path class="cls-3" d="M384.46,36.23c-.87,0-1.36-.43-1.47-1.3-.02-.14-.03-.3-.03-.45v-2.91h-.79v-.67l.82-.05.1-1.47h.74v1.47h1.42v.72h-1.42v2.93c0,.58.18.91.55.99.08.02.17.03.27.03.16,0,.36-.05.6-.14l.18.66c-.4.13-.73.19-.97.19Z"/>
          <path class="cls-3" d="M390.59,29.76c-.28,0-.46-.11-.56-.34-.03-.08-.05-.15-.05-.23,0-.28.13-.47.39-.55.08-.02.15-.03.22-.03.29,0,.48.12.58.35.03.08.04.15.04.23,0,.25-.12.42-.36.52-.08.03-.17.05-.25.05ZM390.14,36.11v-5.26h.88v5.26h-.88Z"/>
          <path class="cls-3" d="M398.52,36.23c-.71,0-1.29-.26-1.76-.79-.45-.52-.68-1.17-.68-1.97,0-.96.31-1.7.93-2.22.44-.36.95-.54,1.51-.54.71,0,1.3.26,1.77.79.45.52.67,1.17.67,1.97,0,.95-.31,1.69-.93,2.2-.44.37-.94.55-1.51.55ZM398.52,35.5c.55,0,.97-.26,1.26-.79.18-.35.27-.76.27-1.23,0-.78-.22-1.35-.66-1.72-.25-.21-.54-.31-.87-.31-.55,0-.96.26-1.24.79-.18.35-.27.76-.27,1.24,0,.8.23,1.38.68,1.73.24.19.52.28.83.28Z"/>
          <path class="cls-3" d="M406.02,36.11v-5.26h.73l.08.76h.03c.57-.56,1.13-.86,1.66-.89h.1c1.07.01,1.6.7,1.61,2.06v3.33h-.89v-3.22c0-.75-.2-1.2-.6-1.34-.12-.04-.25-.06-.4-.06-.38,0-.76.17-1.15.52-.09.08-.19.18-.29.28v3.81h-.88Z"/>
        </g>
      </g>
      <g>
        <path class="cls-2" d="M106.67,31.58c.91,1.97,2.59,3.87,5.46,4.68.26.07.53.11.79.11,1.28,0,2.46-.85,2.82-2.14.44-1.56-.47-3.18-2.03-3.61-1.57-.44-1.96-1.57-2.28-2.74-.38-1.14-.64-3.03-.9-6.41-.02-.28-.16-.53-.24-.79,0,0,.14,4.77-1.44,7.37-1.57,2.6-2.19,3.54-2.19,3.54Z"/>
        <path class="cls-2" d="M21.74,31.07c-6.57-.77-7.08-5.54-7.08-6.99v-10.36h6.73c1.62,0,2.93-1.31,2.93-2.93s-1.31-2.93-2.93-2.93h-6.73V2.93c0-1.62-1.31-2.93-2.93-2.93s-2.93,1.31-2.93,2.93v21.15c0,5.24,3.21,11.74,12.25,12.81.12.01.23.02.35.02,1.47,0,2.73-1.1,2.91-2.59.19-1.61-.96-3.06-2.57-3.25Z"/>
        <g>
          <g>
            <path class="cls-1" d="M69.93,36.64c-.28,0-.55-.01-.82-.03-.92-.02-1.82-.18-2.66-.36-3.48-.8-6.67-2.97-8.74-5.97-1.05-1.5-1.81-3.2-2.2-4.92-.4-1.72-.5-3.52-.28-5.36.47-3.58,2.32-6.96,5.09-9.29,1.4-1.18,2.97-2.08,4.68-2.67,1.71-.59,3.5-.86,5.32-.8,3.59.1,7.14,1.61,9.74,4.15.1.1.11.27,0,.38-.1.1-.27.11-.38,0-2.5-2.45-5.92-3.91-9.38-4-1.76-.06-3.49.2-5.13.77-1.65.57-3.16,1.44-4.51,2.57-2.67,2.24-4.46,5.51-4.9,8.95-.21,1.78-.12,3.52.27,5.18.38,1.65,1.11,3.29,2.12,4.74,2,2.89,5.07,4.99,8.42,5.76.81.17,1.69.33,2.58.35.77.07,1.56.03,2.61-.1.87-.12,1.72-.32,2.54-.59.96-.32,1.68-.65,2.43-1.09,1.46-.87,2.76-2.2,3.74-3.84.22-.36.43-.75.62-1.15.2-.41.38-.85.5-1.15.25-.62.49-1.23.72-1.83l.16-.41c1.12-2.9,2.17-5.64,3.5-8.23.78-1.52,1.52-2.71,2.24-3.65.7-.91,1.74-1.65,2.99-2.14,1.17-.46,2.49-.72,3.94-.78,1.48-.03,2.77.15,3.95.55,2.5.82,4.69,2.63,6.01,4.97.66,1.16,1.09,2.42,1.29,3.74l.1.98v1c-.03.66-.11,1.33-.26,1.98-.58,2.59-2.18,4.95-4.37,6.47-2.17,1.53-4.93,2.22-7.56,1.87-2.66-.33-5.11-1.65-6.87-3.71-.79-.93-1.53-2.16-2.07-3.47-.41-1-.71-2.05-.91-3.15-.5,1.22-.98,2.47-1.48,3.75l-.16.41c-.24.61-.47,1.22-.73,1.84-.12.3-.31.76-.52,1.18-.2.41-.42.81-.64,1.19-1.03,1.72-2.39,3.11-3.93,4.03-.77.46-1.55.81-2.53,1.14-.85.28-1.73.49-2.64.61-.72.09-1.33.14-1.89.14ZM84.83,21.4s0,.02,0,.04c.16,1.35.49,2.65.99,3.86.52,1.26,1.23,2.44,1.98,3.33,1.68,1.96,4,3.22,6.54,3.53,2.51.32,5.12-.32,7.19-1.78,2.09-1.45,3.6-3.69,4.16-6.15.14-.62.22-1.25.25-1.87v-.97s-.1-.94-.1-.94c-.19-1.25-.6-2.45-1.22-3.55-1.25-2.23-3.33-3.95-5.71-4.73-1.13-.37-2.36-.55-3.77-.52-1.36.05-2.66.31-3.76.74-1.16.46-2.12,1.14-2.76,1.97-.71.92-1.42,2.08-2.19,3.57-.58,1.13-1.11,2.28-1.61,3.47Z"/>
            <path class="cls-1" d="M69.93,36.84c-.29,0-.56-.01-.83-.03-.92-.02-1.84-.19-2.68-.36-3.53-.81-6.76-3.01-8.87-6.06-1.06-1.52-1.83-3.25-2.23-4.99-.41-1.74-.5-3.57-.28-5.43.47-3.63,2.35-7.06,5.16-9.42,1.42-1.19,3.01-2.1,4.74-2.7,1.73-.6,3.55-.87,5.4-.81,3.64.1,7.24,1.63,9.87,4.21.18.18.19.47,0,.66-.09.09-.2.14-.33.14-.12,0-.24-.05-.33-.13-2.47-2.41-5.84-3.85-9.25-3.95-1.73-.06-3.43.19-5.06.76-1.62.56-3.12,1.42-4.45,2.54-2.63,2.21-4.39,5.43-4.83,8.82-.21,1.75-.12,3.47.27,5.1.37,1.63,1.09,3.24,2.09,4.67,1.98,2.85,5,4.92,8.3,5.68.8.17,1.66.32,2.54.34.76.06,1.55.03,2.58-.1.85-.12,1.7-.31,2.5-.58.94-.32,1.66-.64,2.39-1.07,1.43-.85,2.7-2.16,3.67-3.78.21-.36.42-.74.61-1.13.2-.4.38-.84.5-1.14.25-.61.48-1.21.72-1.81l.17-.43c1.12-2.91,2.18-5.65,3.51-8.25.79-1.53,1.53-2.73,2.26-3.68.72-.94,1.79-1.7,3.07-2.2,1.19-.47,2.53-.73,4-.79,1.51-.03,2.82.16,4.02.56,2.55.83,4.78,2.68,6.12,5.06.67,1.18,1.11,2.46,1.31,3.81l.1.99v1.03c-.03.68-.12,1.36-.26,2.02-.6,2.64-2.22,5.04-4.45,6.59-2.21,1.56-5.01,2.26-7.7,1.91-2.71-.34-5.2-1.68-7-3.78-.81-.94-1.55-2.2-2.1-3.53-.33-.81-.6-1.66-.79-2.53-.4,1.01-.8,2.03-1.21,3.1l-.17.45c-.24.61-.47,1.22-.73,1.84-.12.3-.31.76-.52,1.2-.2.42-.42.82-.65,1.2-1.05,1.75-2.43,3.16-3.99,4.1-.79.46-1.58.82-2.57,1.15-.86.29-1.76.5-2.67.62-.74.09-1.35.14-1.92.14ZM69.79,7.43c-1.62,0-3.2.27-4.73.8-1.68.58-3.24,1.47-4.61,2.63-2.73,2.3-4.56,5.64-5.02,9.16-.22,1.81-.12,3.59.27,5.29.39,1.69,1.14,3.37,2.17,4.85,2.05,2.96,5.19,5.11,8.63,5.89.82.17,1.72.34,2.62.35.82.07,1.59.04,2.68-.1.89-.12,1.76-.33,2.6-.61.97-.33,1.74-.67,2.49-1.12,1.51-.9,2.84-2.27,3.86-3.96.22-.37.44-.76.63-1.17.21-.42.39-.87.51-1.17.25-.62.49-1.23.72-1.83l.16-.42c.51-1.33.98-2.55,1.48-3.76l.26-.64.12.68c.19,1.08.49,2.12.89,3.1.53,1.29,1.26,2.51,2.04,3.42,1.74,2.02,4.13,3.32,6.75,3.64,2.58.34,5.29-.33,7.42-1.84,2.15-1.5,3.72-3.81,4.29-6.35.14-.64.23-1.29.25-1.94v-1l-.1-.96c-.19-1.29-.62-2.53-1.26-3.67-1.29-2.3-3.44-4.08-5.9-4.88-1.16-.39-2.43-.56-3.88-.54-1.42.06-2.72.31-3.87.76-1.22.48-2.22,1.19-2.9,2.07-.72.93-1.45,2.12-2.22,3.62-1.32,2.58-2.38,5.31-3.49,8.2l-.16.42c-.24.62-.47,1.22-.73,1.84-.12.3-.31.75-.51,1.16-.2.4-.41.8-.63,1.16-1,1.67-2.32,3.03-3.81,3.91-.76.45-1.5.78-2.47,1.11-.83.28-1.69.48-2.57.6-1.06.14-1.88.17-2.65.1-.89-.02-1.78-.18-2.6-.35-3.4-.78-6.51-2.91-8.54-5.84-1.02-1.47-1.76-3.13-2.15-4.81-.4-1.68-.49-3.44-.27-5.24.46-3.49,2.27-6.8,4.97-9.08,1.37-1.15,2.9-2.03,4.57-2.61,1.68-.58,3.43-.84,5.21-.78,3.51.1,6.98,1.58,9.51,4.06.02.02.03.01.05.02.01,0,.03,0,.05-.02.03-.03.03-.07,0-.09-2.56-2.51-6.06-4-9.6-4.1-.18,0-.35,0-.53,0ZM95.63,32.43c-.44,0-.87-.03-1.3-.08-2.58-.32-4.95-1.6-6.66-3.6-.77-.9-1.49-2.11-2.01-3.38-.51-1.23-.84-2.54-1.01-3.91l-.02-.07.03-.07c.55-1.31,1.08-2.45,1.61-3.49.77-1.5,1.5-2.68,2.21-3.6.67-.86,1.65-1.56,2.85-2.03,1.12-.44,2.44-.7,3.82-.76,1.43-.02,2.68.15,3.84.53,2.42.79,4.55,2.55,5.82,4.82.63,1.12,1.05,2.34,1.24,3.62l.1.95v.99c-.03.64-.11,1.28-.25,1.91-.57,2.51-2.11,4.79-4.24,6.27-1.75,1.23-3.89,1.9-6.02,1.9ZM85.04,21.42c.16,1.33.49,2.6.98,3.8.51,1.24,1.21,2.4,1.95,3.28,1.65,1.92,3.93,3.15,6.41,3.46,2.46.32,5.03-.32,7.05-1.75,2.05-1.42,3.54-3.62,4.08-6.04.13-.61.22-1.22.24-1.84v-.96s-.1-.92-.1-.92c-.18-1.22-.59-2.39-1.2-3.47-1.23-2.18-3.27-3.87-5.6-4.64-1.11-.37-2.32-.54-3.7-.51-1.34.05-2.61.3-3.69.73-1.13.44-2.06,1.1-2.68,1.9-.7.91-1.41,2.07-2.17,3.54-.52,1.02-1.04,2.13-1.58,3.41Z"/>
          </g>
          <g>
            <path class="cls-1" d="M95.66,36.64c-.62,0-1.24-.04-1.86-.12-3.56-.43-6.96-2.26-9.31-5.01-1.02-1.2-1.82-2.5-2.53-4.08-.06-.13,0-.29.13-.35.13-.06.29,0,.35.13.69,1.54,1.47,2.79,2.45,3.96,2.27,2.65,5.54,4.41,8.97,4.83,3.46.46,7.07-.44,9.91-2.46,2.86-1.99,4.94-5.08,5.71-8.46.19-.85.31-1.73.34-2.59v-1.31l-.13-1.29c-.26-1.73-.82-3.38-1.68-4.9-1.72-3.05-4.58-5.42-7.86-6.5-1.52-.51-3.3-.76-5.13-.72-1.82.07-3.52.41-5.05,1.01-1.26.49-3.04,1.44-4.39,3.19-1.11,1.44-1.93,2.92-2.58,4.18-1.41,2.74-2.5,5.57-3.55,8.31l-.24.62c-.24.61-.47,1.22-.72,1.81-.16.4-.28.67-.42.96-.15.31-.31.6-.47.88-.71,1.18-1.61,2.11-2.6,2.7-.47.29-1.12.57-1.77.78-.62.21-1.27.36-1.94.45-.6.07-1.3.14-2.01.07-.63,0-1.26-.12-1.95-.26-2.56-.58-4.9-2.19-6.44-4.4-1.49-2.09-2.15-4.85-1.82-7.58.34-2.63,1.71-5.12,3.75-6.83,2.06-1.74,4.68-2.65,7.36-2.55,2.64.07,5.25,1.19,7.17,3.06.1.1.11.27,0,.38-.1.11-.27.11-.38,0-1.82-1.78-4.31-2.84-6.82-2.91-2.55-.1-5.04.76-7,2.42-1.94,1.63-3.24,4-3.57,6.49-.32,2.6.31,5.23,1.73,7.21,1.47,2.11,3.7,3.64,6.12,4.19.66.13,1.26.24,1.87.25.67.07,1.34,0,1.91-.07.63-.09,1.25-.23,1.84-.43.6-.2,1.22-.47,1.66-.74.92-.54,1.75-1.41,2.42-2.52.16-.26.31-.54.45-.84.14-.3.26-.57.4-.93.24-.59.48-1.2.71-1.81l.24-.62c1.06-2.75,2.16-5.59,3.58-8.36.66-1.28,1.49-2.78,2.63-4.26,1.43-1.84,3.3-2.84,4.62-3.36,1.58-.62,3.34-.97,5.22-1.05,1.9-.05,3.73.21,5.31.74,3.4,1.12,6.38,3.57,8.16,6.74.89,1.58,1.48,3.29,1.75,5.09l.14,1.33v1.35c-.03.91-.15,1.81-.35,2.7-.8,3.51-2.95,6.7-5.92,8.77-2.44,1.74-5.43,2.67-8.42,2.67Z"/>
            <path class="cls-1" d="M95.65,36.84c-.63,0-1.26-.04-1.89-.12-3.61-.44-7.05-2.29-9.43-5.08-1.03-1.22-1.85-2.53-2.56-4.13-.05-.11-.05-.24-.01-.35.04-.12.13-.21.24-.26.23-.1.51,0,.61.23.68,1.52,1.45,2.76,2.42,3.91,2.23,2.62,5.46,4.35,8.84,4.76,3.41.45,6.97-.43,9.77-2.42,2.82-1.97,4.87-5.01,5.63-8.34.19-.84.3-1.7.34-2.55v-1.31s-.13-1.27-.13-1.27c-.25-1.7-.81-3.32-1.66-4.82-1.69-3.01-4.52-5.35-7.75-6.41-1.51-.51-3.26-.75-5.06-.71-1.8.07-3.48.41-4.98,1-1.23.48-2.98,1.42-4.31,3.12-1.1,1.43-1.91,2.9-2.56,4.15-1.4,2.73-2.49,5.56-3.54,8.29l-.27.7c-.23.59-.46,1.17-.69,1.74-.16.4-.28.67-.42.97-.15.31-.31.61-.48.9-.72,1.21-1.65,2.16-2.67,2.77-.49.29-1.14.58-1.8.8-.63.21-1.29.37-1.97.46-.61.08-1.33.14-2.05.07-.63,0-1.27-.12-1.97-.26-2.61-.59-5-2.23-6.57-4.48-1.52-2.12-2.19-4.94-1.86-7.72.35-2.68,1.74-5.22,3.82-6.96,2.1-1.78,4.76-2.7,7.5-2.6,2.68.07,5.35,1.21,7.3,3.12.18.18.19.47,0,.66-.09.09-.2.14-.33.14-.12,0-.24-.05-.33-.13-1.79-1.74-4.22-2.78-6.68-2.85-2.5-.1-4.94.74-6.87,2.38-1.9,1.6-3.18,3.92-3.5,6.37-.31,2.55.31,5.13,1.69,7.07,1.44,2.07,3.63,3.57,6,4.11.65.13,1.24.24,1.83.25.66.07,1.32,0,1.88-.07.62-.09,1.22-.23,1.8-.42.59-.2,1.2-.46,1.62-.72.89-.53,1.7-1.37,2.35-2.45.15-.26.3-.53.44-.82.13-.27.24-.53.4-.91.23-.57.46-1.15.68-1.73l.27-.69c1.06-2.75,2.16-5.6,3.58-8.38.67-1.28,1.5-2.8,2.65-4.29,1.45-1.88,3.36-2.9,4.7-3.42,1.6-.63,3.38-.99,5.29-1.06,1.92-.05,3.78.21,5.39.75,3.45,1.13,6.46,3.62,8.27,6.83.9,1.6,1.5,3.34,1.77,5.16l.14,1.34v1.37c-.03.92-.15,1.84-.36,2.74-.81,3.56-2.99,6.8-6,8.89-2.45,1.75-5.48,2.71-8.53,2.71ZM82.2,27.25s-.02,0-.03,0c-.02,0-.03.03-.03.04,0,.01,0,.03,0,.05.7,1.57,1.5,2.85,2.5,4.04,2.32,2.72,5.67,4.52,9.18,4.94,3.54.47,7.26-.46,10.14-2.51,2.93-2.04,5.05-5.19,5.84-8.65.2-.87.32-1.77.35-2.66v-1.34s-.14-1.31-.14-1.31c-.26-1.77-.84-3.46-1.72-5.02-1.76-3.13-4.69-5.55-8.05-6.65-1.56-.52-3.37-.78-5.25-.73-1.86.07-3.6.42-5.16,1.04-1.3.51-3.13,1.49-4.53,3.29-1.13,1.47-1.95,2.96-2.61,4.23-1.41,2.76-2.51,5.6-3.57,8.34l-.27.69c-.23.59-.45,1.17-.69,1.74-.13.33-.25.61-.41.94-.14.3-.3.59-.46.85-.68,1.13-1.54,2.03-2.48,2.59-.45.27-1.08.55-1.7.75-.6.2-1.23.35-1.87.44-.58.07-1.27.14-1.95.07-.61,0-1.21-.12-1.89-.25-2.48-.56-4.75-2.12-6.24-4.27-1.44-2.02-2.09-4.7-1.76-7.35.33-2.55,1.66-4.96,3.64-6.62,2.01-1.7,4.54-2.57,7.14-2.47,2.56.07,5.09,1.15,6.95,2.96.02.02.03.01.05.02.01,0,.03,0,.05-.02.03-.03.03-.07,0-.09-1.88-1.84-4.45-2.93-7.03-3-2.63-.11-5.2.79-7.23,2.5-2,1.68-3.35,4.13-3.68,6.71-.33,2.68.32,5.39,1.79,7.44,1.51,2.18,3.82,3.75,6.32,4.32.68.14,1.29.25,1.91.26.7.07,1.39,0,1.98-.07.65-.09,1.29-.24,1.9-.44.64-.21,1.26-.49,1.73-.77.96-.57,1.84-1.48,2.53-2.63.16-.27.32-.56.47-.86.14-.29.25-.55.41-.94.23-.57.46-1.15.69-1.74l.27-.7c1.06-2.74,2.15-5.57,3.56-8.33.66-1.26,1.48-2.75,2.6-4.21,1.38-1.78,3.2-2.75,4.48-3.25,1.54-.61,3.26-.95,5.11-1.03,1.86-.04,3.65.2,5.2.73,3.32,1.09,6.23,3.49,7.97,6.59.87,1.54,1.44,3.21,1.7,4.97l.14,1.3v1.34c-.03.88-.15,1.77-.35,2.63-.78,3.43-2.89,6.55-5.79,8.58-2.88,2.05-6.54,2.96-10.05,2.49-3.48-.42-6.8-2.2-9.1-4.9-1-1.18-1.79-2.45-2.48-4-.01-.02-.03-.04-.06-.04Z"/>
          </g>
          <g>
            <path class="cls-1" d="M69.92,34.71c-.24,0-.48,0-.72-.03-.8-.01-1.61-.17-2.31-.31-3.02-.69-5.78-2.58-7.59-5.19-1.76-2.47-2.55-5.73-2.15-8.93.4-3.1,2.02-6.04,4.42-8.06,2.39-2.04,5.56-3.13,8.68-3.01,3.11.09,6.2,1.4,8.45,3.61.1.1.11.27,0,.38-.1.1-.27.11-.38,0-2.16-2.11-5.11-3.37-8.1-3.46-3-.12-6.03.93-8.32,2.88-2.31,1.94-3.85,4.75-4.24,7.72-.38,3.07.37,6.19,2.06,8.56,1.73,2.5,4.38,4.32,7.27,4.97.67.14,1.45.29,2.22.3.82.07,1.64,0,2.26-.08,1.56-.22,2.98-.7,4.24-1.42,1.19-.71,2.25-1.81,3.08-3.18.35-.57.66-1.21.99-2.03.25-.6.48-1.21.72-1.82l.21-.54c1.06-2.75,2.16-5.6,3.53-8.28.87-1.67,1.62-2.89,2.44-3.96.92-1.18,2.23-2.13,3.8-2.75,2.98-1.13,6.24-1.23,9.21-.27,2.95.97,5.54,3.1,7.08,5.86.77,1.37,1.28,2.86,1.52,4.42l.12,1.16v1.18c-.03.79-.13,1.57-.31,2.34-.69,3.05-2.57,5.83-5.14,7.62-2.56,1.81-5.81,2.62-8.92,2.21-3.09-.38-6.04-1.97-8.09-4.36-1.31-1.57-2.3-3.42-2.93-5.5-.04-.14.04-.29.18-.33.14-.04.29.04.33.18.61,2.01,1.56,3.8,2.83,5.31,1.96,2.29,4.79,3.82,7.75,4.18,2.98.39,6.1-.38,8.55-2.12,2.47-1.72,4.27-4.38,4.93-7.31.16-.74.26-1.49.29-2.23v-1.14s-.12-1.12-.12-1.12c-.22-1.49-.71-2.91-1.45-4.22-1.48-2.64-3.96-4.69-6.79-5.61-2.85-.92-5.99-.83-8.85.26-1.48.58-2.72,1.47-3.57,2.58-.8,1.04-1.53,2.23-2.39,3.87-1.36,2.65-2.45,5.49-3.51,8.23l-.21.54c-.24.61-.47,1.22-.72,1.82-.34.84-.66,1.51-1.03,2.11-.87,1.45-2,2.61-3.26,3.36-1.32.76-2.81,1.27-4.43,1.49-.47.06-1.04.12-1.64.12Z"/>
            <path class="cls-1" d="M69.92,34.9c-.26,0-.5-.01-.74-.03-.8-.01-1.62-.17-2.33-.31-3.07-.7-5.88-2.62-7.72-5.27-1.79-2.51-2.59-5.82-2.18-9.07.41-3.15,2.05-6.14,4.49-8.19,2.43-2.07,5.65-3.18,8.82-3.05,3.16.09,6.29,1.42,8.58,3.66.18.18.19.47,0,.66-.09.09-.2.14-.33.14-.13,0-.24-.05-.33-.13-2.13-2.08-5.03-3.32-7.97-3.4-2.95-.12-5.93.92-8.19,2.83-2.27,1.91-3.79,4.67-4.17,7.6-.38,3.02.36,6.09,2.02,8.42,1.71,2.46,4.31,4.25,7.15,4.9.66.13,1.43.28,2.18.29.82.07,1.62,0,2.23-.08,1.53-.21,2.93-.68,4.16-1.4,1.16-.69,2.2-1.76,3.01-3.11.34-.56.65-1.2.97-2,.25-.6.48-1.2.71-1.8l.21-.55c1.06-2.76,2.16-5.61,3.54-8.3.87-1.68,1.63-2.91,2.46-3.99.94-1.21,2.28-2.18,3.89-2.81,3.02-1.15,6.33-1.25,9.34-.27,3,.98,5.62,3.15,7.2,5.95.78,1.39,1.3,2.9,1.54,4.49l.12,1.17v1.2c-.03.8-.14,1.6-.31,2.38-.7,3.1-2.61,5.92-5.23,7.74-2.6,1.84-5.9,2.66-9.06,2.24-3.14-.38-6.14-2-8.22-4.43-1.33-1.59-2.33-3.47-2.97-5.57-.07-.24.06-.5.31-.58.24-.07.5.07.58.31.6,1.98,1.54,3.75,2.79,5.24,1.93,2.25,4.71,3.75,7.62,4.11,2.93.39,6-.37,8.41-2.08,2.43-1.7,4.2-4.31,4.85-7.19.16-.72.26-1.46.29-2.19v-1.13l-.12-1.1c-.22-1.46-.7-2.86-1.43-4.15-1.46-2.6-3.89-4.61-6.68-5.52-2.8-.91-5.9-.82-8.72.26-1.45.57-2.65,1.43-3.49,2.51-.79,1.03-1.52,2.21-2.37,3.84-1.35,2.64-2.45,5.47-3.5,8.21l-.24.61c-.23.59-.45,1.17-.69,1.76-.34.85-.67,1.53-1.04,2.13-.88,1.48-2.04,2.66-3.33,3.43-1.34.78-2.86,1.29-4.51,1.52-.45.06-1.04.12-1.67.12ZM69.77,9.36c-2.92,0-5.83,1.07-8.07,2.97-2.37,1.99-3.95,4.88-4.35,7.94-.39,3.15.38,6.36,2.11,8.79,1.78,2.57,4.51,4.43,7.47,5.11.68.14,1.48.29,2.27.31.91.08,1.73-.01,2.33-.09,1.6-.22,3.07-.72,4.36-1.47,1.23-.73,2.34-1.87,3.19-3.29.36-.59.68-1.25,1.01-2.08.24-.58.46-1.17.69-1.75l.24-.61c1.06-2.75,2.15-5.59,3.52-8.25.86-1.65,1.6-2.86,2.4-3.91.88-1.14,2.14-2.05,3.66-2.64,2.9-1.11,6.1-1.2,8.99-.27,2.88.94,5.39,3.02,6.9,5.7.75,1.33,1.25,2.78,1.47,4.29l.12,1.13v1.16c-.03.76-.13,1.53-.3,2.27-.67,2.97-2.5,5.68-5.01,7.43-2.49,1.77-5.66,2.55-8.69,2.15-3.01-.37-5.89-1.92-7.88-4.25-1.28-1.54-2.25-3.35-2.87-5.38-.01-.04-.05-.06-.08-.04-.03.01-.05.05-.04.08.62,2.05,1.6,3.88,2.89,5.43,2.01,2.35,4.92,3.92,7.96,4.29,3.06.4,6.26-.39,8.78-2.18,2.54-1.77,4.39-4.5,5.07-7.5.17-.75.27-1.53.3-2.3v-1.17s-.12-1.14-.12-1.14c-.23-1.53-.73-3-1.49-4.34-1.52-2.71-4.07-4.81-6.97-5.77-2.92-.95-6.14-.85-9.07.27-1.54.6-2.82,1.53-3.72,2.68-.81,1.05-1.56,2.26-2.42,3.93-1.37,2.67-2.46,5.51-3.52,8.26l-.21.54c-.24.62-.47,1.22-.72,1.82-.33.82-.65,1.48-1,2.06-.84,1.4-1.93,2.52-3.14,3.25-1.28.74-2.73,1.23-4.31,1.45-.63.08-1.46.16-2.3.08-.77-.01-1.56-.16-2.24-.3-2.94-.67-5.63-2.51-7.39-5.06-1.72-2.41-2.48-5.58-2.09-8.7.39-3.02,1.96-5.88,4.31-7.85,2.33-1.98,5.41-3.04,8.46-2.93,3.03.08,6.03,1.36,8.23,3.51.02.02.03.02.05.02l.05-.02s.03-.07,0-.09c-2.22-2.17-5.25-3.47-8.32-3.55-.16,0-.32,0-.48,0Z"/>
          </g>
        </g>
        <path class="cls-2" d="M7.7,13.73H2.93c-1.62,0-2.93-1.31-2.93-2.93s1.31-2.93,2.93-2.93h4.77"/>
        <g>
          <path class="cls-2" d="M51.87,7.95c-1.49-.63-3.21.08-3.83,1.57l-6.53,15.58,3.21,7.51,8.72-20.82c.63-1.49-.08-3.21-1.57-3.83Z"/>
          <path class="cls-2" d="M33.14,9.45c-.66-1.48-2.4-2.13-3.87-1.47-1.48.66-2.13,2.4-1.47,3.87l10.49,23.33c.47,1.05,1.52,1.73,2.67,1.73.01,0,.03,0,.04,0,1.17-.02,2.21-.72,2.66-1.8l.49-1.16-3.28-7.33-7.73-17.18Z"/>
        </g>
      </g>
    </g>
  </g>
</svg>